<?xml version="1.0" encoding="UTF-8" standalone="no"?><!DOCTYPE svg PUBLIC "-//W3C//DTD SVG 1.1//EN" "http://www.w3.org/Graphics/SVG/1.1/DTD/svg11.dtd"><svg width="100%" height="100%" viewBox="0 0 500 300" version="1.1" xmlns="http://www.w3.org/2000/svg" xmlns:xlink="http://www.w3.org/1999/xlink" xml:space="preserve" xmlns:serif="http://www.serif.com/" style="fill-rule:evenodd;clip-rule:evenodd;stroke-linejoin:round;stroke-miterlimit:2;"><rect id="アートボード1" x="0" y="0" width="500" height="300" style="fill:none;"/><g id="アートボード11" serif:id="アートボード1"><path d="M149.78,162.793l8.936,-0.781c0.423,3.58 1.408,6.518 2.954,8.813c1.546,2.295 3.947,4.151 7.202,5.567c3.255,1.416 6.917,2.124 10.986,2.124c3.614,-0 6.804,-0.537 9.571,-1.612c2.767,-1.074 4.826,-2.547 6.176,-4.419c1.351,-1.871 2.027,-3.914 2.027,-6.128c-0,-2.246 -0.651,-4.207 -1.953,-5.883c-1.302,-1.677 -3.451,-3.085 -6.446,-4.224c-1.92,-0.749 -6.168,-1.912 -12.744,-3.491c-6.575,-1.579 -11.181,-3.068 -13.818,-4.468c-3.418,-1.79 -5.965,-4.012 -7.642,-6.665c-1.676,-2.653 -2.514,-5.623 -2.514,-8.911c-0,-3.613 1.025,-6.991 3.076,-10.132c2.051,-3.141 5.045,-5.526 8.984,-7.153c3.939,-1.628 8.317,-2.442 13.135,-2.442c5.306,0 9.985,0.855 14.038,2.564c4.053,1.709 7.17,4.223 9.351,7.544c2.181,3.32 3.352,7.08 3.515,11.279l-9.082,0.684c-0.488,-4.525 -2.14,-7.943 -4.956,-10.254c-2.816,-2.312 -6.974,-3.467 -12.475,-3.467c-5.73,-0 -9.904,1.05 -12.525,3.149c-2.62,2.1 -3.93,4.631 -3.93,7.593c-0,2.572 0.927,4.688 2.783,6.348c1.823,1.66 6.583,3.361 14.282,5.102c7.699,1.742 12.98,3.264 15.845,4.566c4.166,1.92 7.243,4.354 9.228,7.3c1.986,2.945 2.979,6.339 2.979,10.18c-0,3.809 -1.091,7.398 -3.272,10.767c-2.181,3.369 -5.314,5.989 -9.399,7.861c-4.085,1.872 -8.683,2.808 -13.794,2.808c-6.478,-0 -11.906,-0.944 -16.284,-2.832c-4.379,-1.888 -7.813,-4.729 -10.303,-8.521c-2.49,-3.792 -3.801,-8.081 -3.931,-12.866Z" style="fill-rule:nonzero;"/><path d="M240.161,185.791l-27.734,-71.582l10.254,-0l18.603,52.002c1.498,4.167 2.751,8.073 3.76,11.719c1.107,-3.907 2.393,-7.813 3.857,-11.719l19.336,-52.002l9.668,-0l-28.027,71.582l-9.717,0Z" style="fill-rule:nonzero;"/><path d="M319.897,157.715l0,-8.399l30.323,-0.048l-0,26.562c-4.655,3.711 -9.457,6.502 -14.405,8.374c-4.947,1.872 -10.026,2.808 -15.234,2.808c-7.031,-0 -13.42,-1.506 -19.165,-4.517c-5.745,-3.011 -10.083,-7.365 -13.013,-13.061c-2.929,-5.697 -4.394,-12.061 -4.394,-19.092c-0,-6.966 1.456,-13.469 4.37,-19.507c2.913,-6.038 7.104,-10.522 12.573,-13.452c5.469,-2.93 11.768,-4.395 18.897,-4.395c5.175,0 9.855,0.838 14.038,2.515c4.183,1.676 7.462,4.012 9.839,7.007c2.376,2.995 4.183,6.901 5.42,11.719l-8.545,2.343c-1.075,-3.646 -2.409,-6.51 -4.004,-8.593c-1.595,-2.084 -3.874,-3.752 -6.836,-5.005c-2.962,-1.254 -6.25,-1.88 -9.864,-1.88c-4.329,-0 -8.072,0.659 -11.23,1.977c-3.158,1.319 -5.705,3.052 -7.642,5.2c-1.936,2.149 -3.442,4.509 -4.516,7.081c-1.823,4.427 -2.735,9.228 -2.735,14.404c0,6.38 1.099,11.719 3.296,16.015c2.198,4.297 5.396,7.487 9.595,9.571c4.199,2.083 8.659,3.125 13.379,3.125c4.102,-0 8.105,-0.79 12.012,-2.368c3.906,-1.579 6.868,-3.264 8.886,-5.054l0,-13.33l-21.045,-0Z" style="fill-rule:nonzero;"/></g></svg>